<svg width="783" height="525" viewBox="0 0 783 525" fill="none" xmlns="http://www.w3.org/2000/svg">
<g clip-path="url(#clip0_1_2)">
<path d="M365.54 246.971H10.7161C7.875 246.968 5.15111 245.838 3.14212 243.829C1.13313 241.82 0.00313006 239.096 3.05176e-05 236.255V10.7161C0.00314329 7.87501 1.13315 5.15114 3.14214 3.14215C5.15112 1.13316 7.87501 0.00314594 10.7161 3.05176e-05H365.54C368.381 0.00313537 371.105 1.13315 373.114 3.14215C375.123 5.15115 376.253 7.87504 376.256 10.7162V236.255C376.253 239.096 375.123 241.82 373.114 243.829C371.105 245.838 368.381 246.968 365.54 246.971V246.971ZM10.7161 2.38135C8.50644 2.38403 6.38801 3.26302 4.82552 4.82552C3.26302 6.38801 2.38404 8.50644 2.38136 10.7161V236.255C2.38404 238.464 3.26301 240.583 4.8255 242.145C6.388 243.708 8.50644 244.587 10.7161 244.59H365.54C367.75 244.587 369.868 243.708 371.431 242.145C372.993 240.583 373.872 238.464 373.875 236.255V10.7161C373.872 8.50644 372.993 6.38801 371.431 4.82552C369.868 3.26302 367.75 2.38402 365.54 2.38135H10.7161Z" fill="white"/>
<path d="M217.012 209.943C253.462 209.943 283.011 180.395 283.011 143.945C283.011 107.495 253.462 77.9466 217.012 77.9466C180.563 77.9466 151.014 107.495 151.014 143.945C151.014 180.395 180.563 209.943 217.012 209.943Z" fill="#CCCCCC"/>
<path d="M725.35 522.889C727.843 496.037 734.73 469.775 745.735 445.155C748.802 438.303 752.177 431.602 755.862 425.052C756.809 423.367 754.218 421.852 753.272 423.538C739.872 447.395 730.485 473.291 725.486 500.193C724.095 507.705 723.05 515.271 722.35 522.889C722.172 524.811 725.173 524.799 725.35 522.889H725.35Z" fill="#E6E6E6"/>
<path d="M763.128 429.863C773.621 429.863 782.128 421.357 782.128 410.863C782.128 400.37 773.621 391.863 763.128 391.863C752.635 391.863 744.128 400.37 744.128 410.863C744.128 421.357 752.635 429.863 763.128 429.863Z" fill="#E6E6E6"/>
<path d="M727.293 523.394C728.911 505.973 733.378 488.936 740.518 472.964C742.508 468.519 744.698 464.172 747.088 459.922C747.208 459.7 747.237 459.44 747.169 459.197C747.1 458.954 746.94 458.747 746.722 458.619C746.504 458.492 746.245 458.454 746 458.514C745.755 458.574 745.542 458.726 745.408 458.94C736.715 474.417 730.625 491.218 727.381 508.67C726.479 513.544 725.801 518.452 725.347 523.394C725.232 524.641 727.179 524.633 727.293 523.394V523.394Z" fill="#E6E6E6"/>
<path d="M751.802 463.044C758.609 463.044 764.128 457.525 764.128 450.717C764.128 443.91 758.609 438.391 751.802 438.391C744.994 438.391 739.476 443.91 739.476 450.717C739.476 457.525 744.994 463.044 751.802 463.044Z" fill="#E6E6E6"/>
<path d="M724.837 522.23C715.398 507.5 708.442 491.319 704.247 474.333C703.081 469.605 702.135 464.83 701.406 460.009C701.364 459.76 701.226 459.538 701.023 459.388C700.82 459.238 700.566 459.173 700.316 459.207C700.066 459.24 699.838 459.37 699.682 459.568C699.525 459.766 699.451 460.017 699.476 460.268C702.142 477.818 707.673 494.811 715.85 510.567C718.136 514.964 720.62 519.251 723.302 523.428C723.978 524.482 725.508 523.278 724.837 522.231V522.23Z" fill="#E6E6E6"/>
<path d="M699.461 462.178C706.269 462.178 711.787 456.66 711.787 449.852C711.787 443.045 706.269 437.526 699.461 437.526C692.653 437.526 687.135 443.045 687.135 449.852C687.135 456.66 692.653 462.178 699.461 462.178Z" fill="#E6E6E6"/>
<path d="M626.228 344.491C627.038 343.264 627.568 341.874 627.783 340.42C627.997 338.965 627.89 337.482 627.469 336.073C627.047 334.665 626.323 333.366 625.345 332.268C624.367 331.17 623.161 330.3 621.811 329.718L624.402 294.077L608.199 303.15L608.223 335.604C607.396 337.937 607.455 340.492 608.386 342.785C609.318 345.078 611.059 346.95 613.278 348.045C615.498 349.141 618.042 349.384 620.429 348.729C622.815 348.074 624.879 346.566 626.228 344.491V344.491Z" fill="#FFB8B8"/>
<path d="M622.198 205.945L626.628 319.363L608.628 318.363L604.628 199.363L608.424 197.577C609.868 196.897 611.458 196.586 613.052 196.67C614.646 196.755 616.194 197.233 617.558 198.062C618.922 198.891 620.06 200.044 620.87 201.42C621.679 202.795 622.135 204.35 622.198 205.945Z" fill="#6C63FF"/>
<path d="M566.53 512.201H554.271L548.438 464.913H566.532L566.53 512.201Z" fill="#FFB8B8"/>
<path d="M545.513 508.698H569.157V523.584H530.627C530.627 521.63 531.012 519.694 531.76 517.888C532.508 516.081 533.604 514.44 534.987 513.058C536.369 511.676 538.01 510.579 539.816 509.831C541.623 509.083 543.558 508.698 545.513 508.698V508.698Z" fill="#2F2E41"/>
<path d="M668.533 497.55L657.408 502.7L632.247 462.239L648.668 454.637L668.533 497.55Z" fill="#FFB8B8"/>
<path d="M647.99 503.2L669.446 493.267L675.7 506.777L640.734 522.964C639.913 521.19 639.449 519.271 639.369 517.318C639.289 515.364 639.595 513.414 640.269 511.579C640.942 509.744 641.971 508.059 643.296 506.622C644.621 505.184 646.215 504.021 647.99 503.2V503.2Z" fill="#2F2E41"/>
<path d="M537.42 357.874L550.064 502.163L567.064 500.163L579.628 368.363L649.064 494.163L667.064 489.163C667.064 489.163 609.128 315.863 604.628 301.363C599.695 285.468 560.628 279.363 560.628 279.363L559.128 277.863C542.341 300.461 535.618 329.782 537.42 357.874Z" fill="white"/>
<path d="M604.777 185.059C618.342 185.059 629.338 174.062 629.338 160.498C629.338 146.933 618.342 135.937 604.777 135.937C591.213 135.937 580.216 146.933 580.216 160.498C580.216 174.062 591.213 185.059 604.777 185.059Z" fill="#FFB8B8"/>
<path d="M622.064 198.163L603.128 296.863C603.128 296.863 577.188 291.683 567.948 285.443C564.288 282.963 560.968 280.403 558.168 278.083C555.019 275.497 552.001 272.753 549.128 269.863C549.128 269.863 555.768 237.253 558.138 228.523C560.89 218.411 570.331 206.632 577.685 198.606C580.351 195.698 583.758 193.57 587.54 192.451C591.323 191.331 595.339 191.261 599.159 192.25L622.064 198.163Z" fill="#6C63FF"/>
<path opacity="0.2" d="M567.948 285.443C564.288 282.963 560.968 280.403 558.168 278.083C559.178 263.143 581.188 231.863 590.108 231.863C590.108 231.863 592.218 280.073 567.948 285.443Z" fill="black"/>
<path d="M522.644 324.68C524.026 324.179 525.281 323.381 526.322 322.343C527.362 321.304 528.162 320.05 528.665 318.668C529.168 317.287 529.362 315.812 529.234 314.348C529.105 312.883 528.657 311.465 527.921 310.192L551.28 283.149L532.866 280.752L513.507 306.8C511.451 308.178 509.972 310.263 509.35 312.659C508.728 315.054 509.007 317.595 510.133 319.799C511.26 322.003 513.155 323.717 515.461 324.617C517.767 325.517 520.323 325.539 522.644 324.68V324.68Z" fill="#FFB8B8"/>
<path d="M587.95 193.388C586.933 193.409 585.92 193.525 584.924 193.735C582.908 194.195 581.038 195.149 579.482 196.51C577.925 197.872 576.731 199.598 576.006 201.534L547.128 261.863L516.128 294.863L531.628 307.363L580.628 263.363L600.204 210.082C600.829 208.158 600.988 206.112 600.666 204.115C600.345 202.117 599.553 200.225 598.355 198.594C597.158 196.963 595.59 195.641 593.781 194.735C591.972 193.83 589.973 193.368 587.95 193.388V193.388Z" fill="#6C63FF"/>
<path d="M606.231 184.833C609.727 179.6 612.485 172.345 608.637 167.367C604.838 162.453 597.345 163.177 591.526 161.002C583.422 157.974 578.722 148.453 580.188 139.927C581.654 131.4 588.498 124.332 596.652 121.44C604.806 118.548 614 119.489 621.985 122.819C631.814 126.919 640.246 134.849 643.782 144.895C647.318 154.941 645.428 167.003 638.093 174.725C630.229 183.003 617.887 185.209 606.47 185.076" fill="#302E41"/>
<path d="M644.8 155.873C645.8 161.464 651.934 164.64 657.571 165.337C663.207 166.035 669.038 165.14 674.526 166.606C684.2 169.191 690.581 178.495 694.093 187.872C697.605 197.249 699.162 207.37 703.725 216.284C708.288 225.197 717.136 233.055 727.114 232.221C725.16 237.143 721.734 241.341 717.305 244.244C712.876 247.147 707.659 248.613 702.366 248.441C697.073 248.269 691.962 246.469 687.73 243.285C683.498 240.102 680.352 235.69 678.72 230.652C675.054 219.335 679.262 205.839 672.852 195.818C669.304 190.273 663.179 187.012 657.272 184.105C651.366 181.199 645.166 178.216 641.206 172.958C637.246 167.7 636.455 159.395 641.335 154.977" fill="#2F2E41"/>
<path d="M764.403 524.111H444.109C443.952 524.111 443.797 524.081 443.652 524.021C443.508 523.961 443.376 523.874 443.265 523.763C443.154 523.653 443.066 523.521 443.006 523.376C442.946 523.232 442.915 523.077 442.915 522.92C442.915 522.763 442.946 522.608 443.006 522.464C443.066 522.319 443.154 522.187 443.265 522.077C443.376 521.966 443.508 521.879 443.652 521.819C443.797 521.759 443.952 521.729 444.109 521.729H764.403C764.56 521.729 764.715 521.759 764.86 521.819C765.005 521.879 765.136 521.966 765.247 522.077C765.358 522.187 765.446 522.319 765.506 522.464C765.566 522.608 765.597 522.763 765.597 522.92C765.597 523.077 765.566 523.232 765.506 523.376C765.446 523.521 765.358 523.653 765.247 523.763C765.136 523.874 765.005 523.961 764.86 524.021C764.715 524.081 764.56 524.111 764.403 524.111V524.111Z" fill="white"/>
<path d="M197.053 223.152C183.802 223.152 170.849 219.223 159.831 211.861C148.813 204.499 140.226 194.035 135.155 181.793C130.084 169.551 128.757 156.08 131.343 143.083C133.928 130.087 140.309 118.149 149.679 108.779C159.048 99.4092 170.986 93.0282 183.983 90.4431C196.979 87.8579 210.45 89.1847 222.693 94.2556C234.935 99.3265 245.399 107.914 252.76 118.932C260.122 129.949 264.052 142.903 264.052 156.154C264.032 173.917 256.967 190.946 244.406 203.507C231.846 216.067 214.816 223.132 197.053 223.152V223.152ZM197.053 91.1557C184.198 91.1558 171.631 94.9679 160.942 102.11C150.253 109.252 141.922 119.404 137.003 131.28C132.083 143.157 130.796 156.226 133.304 168.835C135.812 181.443 142.003 193.025 151.093 202.115C160.183 211.205 171.765 217.395 184.373 219.903C196.982 222.411 210.051 221.124 221.928 216.204C233.804 211.285 243.956 202.954 251.098 192.265C258.24 181.576 262.052 169.009 262.052 156.154C262.032 138.921 255.178 122.4 242.993 110.215C230.807 98.0293 214.286 91.1751 197.053 91.1557V91.1557Z" fill="#3F3D56"/>
<path d="M154.974 37.028L93.245 143.945H216.703L154.974 37.028L93.245 143.945H216.703L154.974 37.028Z" fill="#6C63FF"/>
</g>
<defs>
<clipPath id="clip0_1_2">
<rect width="782.128" height="524.326" fill="white"/>
</clipPath>
</defs>
</svg>
